<?xml version="1.0" ?><svg height="128" id="svg6449" version="1.1" viewBox="0 0 33.866666 33.866668" width="128" xmlns="http://www.w3.org/2000/svg" xmlns:cc="http://creativecommons.org/ns#" xmlns:dc="http://purl.org/dc/elements/1.1/" xmlns:inkscape="http://www.inkscape.org/namespaces/inkscape" xmlns:rdf="http://www.w3.org/1999/02/22-rdf-syntax-ns#" xmlns:sodipodi="http://sodipodi.sourceforge.net/DTD/sodipodi-0.dtd" xmlns:svg="http://www.w3.org/2000/svg"><defs id="defs6443"><clipPath clipPathUnits="userSpaceOnUse" id="clipPath5143"><ellipse cx="209.94763" cy="1573.1123" id="ellipse5145" rx="55.764446" ry="55.766594" style="display:inline;opacity:0.43500001;fill:#ffaaaa;fill-rule:evenodd;stroke:#333333;stroke-width:4.21448183;stroke-linecap:round;stroke-linejoin:round;stroke-miterlimit:4;stroke-dasharray:none;stroke-dashoffset:6.5999999;stroke-opacity:1"/></clipPath><clipPath clipPathUnits="userSpaceOnUse" id="clipPath11046"><ellipse cx="209.94763" cy="1380.6261" id="ellipse11048" rx="55.76445" ry="55.766594" style="display:inline;opacity:0.47600002;fill:#ffaaaa;fill-rule:evenodd;stroke:#333333;stroke-width:4.21448183;stroke-linecap:round;stroke-linejoin:round;stroke-miterlimit:4;stroke-dasharray:none;stroke-dashoffset:6.5999999;stroke-opacity:1"/></clipPath><clipPath clipPathUnits="userSpaceOnUse" id="clipPath8754"><ellipse cx="205.48343" cy="1298.3982" id="ellipse8756" rx="78.18396" ry="83.010139" style="display:inline;opacity:0.419;fill:#ffaaaa;fill-opacity:1;fill-rule:evenodd;stroke:#333333;stroke-width:4.21448183;stroke-linecap:round;stroke-linejoin:round;stroke-miterlimit:4;stroke-dasharray:none;stroke-dashoffset:6.5999999;stroke-opacity:1"/></clipPath><clipPath clipPathUnits="userSpaceOnUse" id="clipPath5060"><ellipse cx="68.499527" cy="1656.6876" id="ellipse5062" rx="71.409416" ry="71.223892" style="display:inline;opacity:0.45199998;fill:#ffe680;fill-rule:evenodd;stroke:#333333;stroke-width:4.21448183;stroke-linecap:round;stroke-linejoin:round;stroke-miterlimit:4;stroke-dasharray:none;stroke-dashoffset:6.5999999;stroke-opacity:1"/></clipPath><clipPath clipPathUnits="userSpaceOnUse" id="clipPath6174"><ellipse cx="128.2972" cy="1416.0679" id="ellipse6176" rx="55.76445" ry="55.766594" style="display:inline;opacity:0.572;fill:#ff9696;fill-opacity:1;fill-rule:evenodd;stroke:#333333;stroke-width:4.21448183;stroke-linecap:round;stroke-linejoin:round;stroke-miterlimit:4;stroke-dasharray:none;stroke-dashoffset:6.5999999;stroke-opacity:1"/></clipPath><clipPath clipPathUnits="userSpaceOnUse" id="clipPath5292"><ellipse cx="554.68481" cy="1234.8002" id="ellipse5294" rx="46.906162" ry="46.90797" style="display:inline;opacity:0.469;fill:#ffaaaa;fill-rule:evenodd;stroke:#333333;stroke-width:3.5625;stroke-linecap:round;stroke-linejoin:round;stroke-miterlimit:4;stroke-dasharray:none;stroke-dashoffset:6.5999999;stroke-opacity:1"/></clipPath><clipPath clipPathUnits="userSpaceOnUse" id="clipPath6537"><ellipse cx="2254.0229" cy="1364.222" id="ellipse6539" rx="114.45508" ry="114.4127" style="display:inline;fill:#d9ed88;fill-opacity:0.6;fill-rule:evenodd;stroke:#333333;stroke-width:9.00000095;stroke-linecap:round;stroke-linejoin:round;stroke-miterlimit:4;stroke-dasharray:none;stroke-dashoffset:6.5999999;stroke-opacity:1"/></clipPath></defs><g id="layer1" transform="translate(0,-263.13332)"><g id="g6432" transform="matrix(0.33092213,0,0,0.33092213,-133.41038,-115.11683)"><ellipse cx="454.3175" cy="1238.4099" id="ellipse5365" rx="44.630974" ry="6.4860311" style="opacity:0.694;fill:#808080;fill-rule:evenodd;stroke:none;stroke-width:0.39388925px;stroke-linecap:butt;stroke-linejoin:miter;stroke-opacity:1"/><g id="g5363" transform="translate(-100.36726,-44.264535)"><ellipse cx="554.68475" cy="1236.4353" id="ellipse5028" rx="46.906162" ry="46.90797" style="display:inline;fill:#ffd479;fill-opacity:1;fill-rule:evenodd;stroke:#333333;stroke-width:3.5625;stroke-linecap:round;stroke-linejoin:round;stroke-miterlimit:4;stroke-dasharray:none;stroke-dashoffset:6.5999999;stroke-opacity:1"/><path d="m 594.9622,1232.1428 c 1.38981,5.0861 0.57735,9.293 -0.51323,13.5382" id="path5030" style="opacity:1;fill:none;fill-opacity:0;fill-rule:evenodd;stroke:#ffffff;stroke-width:2.36333537;stroke-linecap:round;stroke-linejoin:round;stroke-miterlimit:4;stroke-dasharray:none;stroke-dashoffset:0;stroke-opacity:1"/><ellipse cx="707.78625" cy="1164.4199" id="ellipse5032" rx="1.4152702" ry="1.4153246" style="fill:#ffffff;fill-opacity:1;fill-rule:evenodd;stroke:#ffffff;stroke-width:0.39388925px;stroke-linecap:butt;stroke-linejoin:miter;stroke-opacity:1" transform="rotate(5.4689903)"/><path d="m 516.00649,1219.5597 c 0.0371,0.023 2.70289,-9.9672 16.36837,-17.0405 6.09279,-3.1414 13.66893,-5.1045 22.06734,-4.8828 0.10362,0 0.20714,0.01 0.31057,0.01 8.57951,0.2765 16.20473,2.7144 22.26484,5.966 12.8192,6.8705 16.5951,15.7723 16.35254,15.9481 -0.589,0.4268 -6.0916,-7.3173 -17.89011,-12.9064 -5.80967,-2.7488 -12.9315,-4.8225 -20.85252,-5.0709 -0.0955,0 -0.19099,-0.01 -0.28661,-0.01 -7.74564,-0.1936 -14.72445,1.4172 -20.45466,4.0432 -6.07436,2.7702 -10.46075,6.5984 -13.27049,9.4078 -2.8495,2.8491 -4.24918,4.7606 -4.60927,4.5343 z" id="path5034" style="opacity:1;fill:#ffffff;fill-opacity:1;fill-rule:evenodd;stroke:none;stroke-width:7.87778473;stroke-linecap:round;stroke-linejoin:round;stroke-miterlimit:4;stroke-dasharray:none;stroke-dashoffset:0;stroke-opacity:1"/><g id="g5338"><g clip-path="url(#clipPath5292)" id="g5290"><g id="g5106" style="stroke-width:3.51794744;stroke-miterlimit:4;stroke-dasharray:none" transform="translate(1.5441117,4.0266436)"><path d="m 557.55129,1256.7808 c 3.29201,-15.1863 9.99238,-13.8305 5.27488,-38.8128 0.0422,0.1099 9.23502,3.5103 9.27641,14.6732 0.037,9.9171 -13.38248,26.8432 -14.55129,24.1396 z" id="path4992" style="fill:#89a02c;fill-opacity:1;fill-rule:evenodd;stroke:#333333;stroke-width:3.51794744;stroke-linecap:round;stroke-linejoin:round;stroke-miterlimit:4;stroke-dasharray:none;stroke-opacity:1"/><path d="m 548.99174,1248.0795 c 7.7111,-13.9298 10.33845,-12.6587 13.23586,-37.8488 0.008,0.1156 4.56543,7.451 4.64498,18.6138 0.0745,10.4543 -10.57746,25.789 -17.88084,19.235 z" id="path4994" style="fill:#89a02c;fill-opacity:1;fill-rule:evenodd;stroke:#333333;stroke-width:3.51794744;stroke-linecap:round;stroke-linejoin:round;stroke-miterlimit:4;stroke-dasharray:none;stroke-opacity:1"/><path d="m 548.22054,1254.7666 c -3.292,-14.3414 -9.99239,-13.0611 -5.27486,-36.6535 -0.0422,0.1038 -8.56624,2.88 -8.60763,13.4218 -0.0368,9.3653 12.71367,25.7849 13.88249,23.2317 z" id="path4982" style="fill:#89a02c;fill-opacity:1;fill-rule:evenodd;stroke:#333333;stroke-width:3.51794744;stroke-linecap:round;stroke-linejoin:round;stroke-miterlimit:4;stroke-dasharray:none;stroke-opacity:1"/><path d="m 557.8442,1247.9345 c -7.7111,-13.9298 -10.33845,-12.6588 -13.23586,-37.8489 -0.008,0.1156 -4.56544,7.4511 -4.64499,18.6138 -0.0745,10.4543 10.57746,25.789 17.88085,19.2351 z" id="path5000" style="fill:#89a02c;fill-opacity:1;fill-rule:evenodd;stroke:#333333;stroke-width:3.51794744;stroke-linecap:round;stroke-linejoin:round;stroke-miterlimit:4;stroke-dasharray:none;stroke-opacity:1"/><path d="m 550.53443,1255.0418 c -6.29892,-17.3899 0.44582,-34.3717 0,-49.3918 15.71658,19.3316 8.11313,36.3466 0,49.3918 z" id="path4998" style="fill:#89a02c;fill-opacity:1;fill-rule:evenodd;stroke:#333333;stroke-width:3.51794744;stroke-linecap:round;stroke-linejoin:round;stroke-miterlimit:4;stroke-dasharray:none;stroke-opacity:1"/></g><g id="g5273"><path d="m 579.45432,1279.0016 c 10e-6,19.0662 -8.29819,26.0776 -24.13387,26.0776 -15.83566,-10e-5 -25.04169,-7.0114 -25.04167,-26.0776 0,-19.0662 7.04684,-31.2338 24.73907,-31.3556 16.10117,-0.1108 24.43647,12.2894 24.43647,31.3556 z" id="path4986" style="fill:#ffb380;fill-rule:evenodd;stroke:#333333;stroke-width:3.5625;stroke-linecap:round;stroke-linejoin:round;stroke-miterlimit:4;stroke-dasharray:none;stroke-opacity:1"/><path d="m 554.89364,1249.2414 c -16.30169,0.1175 -22.79496,11.862 -22.79496,30.2662 0,3.3939 0.28994,6.3898 0.85201,9.0229 12.46623,-3.0012 30.85942,-21.8255 31.14798,-37.4544 -2.67612,-1.2189 -5.74287,-1.8596 -9.20503,-1.8347 z" id="path5259" style="opacity:0.469;fill:#ec7b30;fill-opacity:1;fill-rule:evenodd;stroke:none;stroke-width:3.56249976;stroke-linecap:round;stroke-linejoin:round;stroke-miterlimit:4;stroke-dasharray:none;stroke-dashoffset:0;stroke-opacity:1"/><path d="m 530.69428,1275.7154 32.57953,28.4122" id="path4989" style="fill:none;fill-rule:evenodd;stroke:#333333;stroke-width:3.5625;stroke-linecap:round;stroke-linejoin:round;stroke-miterlimit:4;stroke-dasharray:none;stroke-opacity:1"/><path d="m 546.83755,1248.9267 32.36279,28.2232" id="path4991" style="fill:none;fill-rule:evenodd;stroke:#333333;stroke-width:3.5625;stroke-linecap:round;stroke-linejoin:round;stroke-miterlimit:4;stroke-dasharray:none;stroke-opacity:1"/><path d="m 534.59965,1259.1542 41.43087,36.1314" id="path4993" style="fill:none;fill-rule:evenodd;stroke:#333333;stroke-width:3.5625;stroke-linecap:round;stroke-linejoin:round;stroke-miterlimit:4;stroke-dasharray:none;stroke-opacity:1"/><path d="m 579.20034,1275.5745 -32.70323,28.5202" id="path4995" style="fill:none;fill-rule:evenodd;stroke:#333333;stroke-width:3.5625;stroke-linecap:round;stroke-linejoin:round;stroke-miterlimit:4;stroke-dasharray:none;stroke-opacity:1"/><path d="m 562.97121,1248.8607 -32.50389,28.3463" id="path4997" style="fill:none;fill-rule:evenodd;stroke:#333333;stroke-width:3.5625;stroke-linecap:round;stroke-linejoin:round;stroke-miterlimit:4;stroke-dasharray:none;stroke-opacity:1"/><path d="m 574.90649,1259.3522 -40.86348,35.6365" id="path4999" style="fill:none;fill-rule:evenodd;stroke:#333333;stroke-width:3.5625;stroke-linecap:round;stroke-linejoin:round;stroke-miterlimit:4;stroke-dasharray:none;stroke-opacity:1"/></g></g><path d="m 538.80969,1264.4195 c -1.83466,6.4778 1.35584,11.581 2.75926,12.9335" id="path5160" style="opacity:1;fill:none;fill-opacity:1;fill-rule:evenodd;stroke:#ffffff;stroke-width:2.36333537;stroke-linecap:round;stroke-linejoin:round;stroke-miterlimit:4;stroke-dasharray:none;stroke-dashoffset:0;stroke-opacity:1"/><ellipse cx="-540.03418" cy="1259.9342" id="ellipse5162" rx="1.2438582" ry="1.3282919" style="fill:#ffffff;fill-opacity:1;fill-rule:evenodd;stroke:none;stroke-width:0.39388931px;stroke-linecap:butt;stroke-linejoin:miter;stroke-opacity:1" transform="scale(-1,1)"/></g></g></g></g></svg>